<svg width="162" height="152" viewBox="0 0 162 152" fill="none" xmlns="http://www.w3.org/2000/svg">
<path d="M18.12 7.24C17.08 6.68 15.9733 6.22667 14.8 5.88C13.6267 5.53333 12.52 5.36 11.48 5.36C9.90667 5.36 8.65333 5.72 7.72 6.44C6.81333 7.13333 6.36 8.09333 6.36 9.32C6.36 10.52 6.89333 11.5067 7.96 12.28C9.05333 13.0267 10.6 13.7733 12.6 14.52C14.0933 15.0533 15.3467 15.64 16.36 16.28C17.4 16.8933 18.2533 17.76 18.92 18.88C19.6133 19.9733 19.96 21.3733 19.96 23.08C19.96 24.6267 19.5733 26.0267 18.8 27.28C18.0267 28.5333 16.92 29.52 15.48 30.24C14.0667 30.96 12.4 31.32 10.48 31.32C8.69333 31.32 6.97333 31.04 5.32 30.48C3.66667 29.8933 2.21333 29.16 0.96 28.28L2.68 25.2C3.66667 25.9467 4.85333 26.5867 6.24 27.12C7.62667 27.6267 8.92 27.88 10.12 27.88C11.6667 27.88 13.0133 27.48 14.16 26.68C15.3333 25.88 15.92 24.6933 15.92 23.12C15.92 21.7867 15.4267 20.7333 14.44 19.96C13.48 19.16 12.12 18.4133 10.36 17.72C8.73333 17.1067 7.37333 16.5067 6.28 15.92C5.21333 15.3333 4.29333 14.5333 3.52 13.52C2.74667 12.48 2.36 11.1867 2.36 9.64C2.36 7.37333 3.14667 5.54667 4.72 4.16C6.32 2.74667 8.38667 2 10.92 1.92C14.04 1.92 16.9333 2.69333 19.6 4.24L18.12 7.24ZM30.3213 2.08V31H26.4413V2.08H30.3213ZM63.8288 2.08V31.96H63.7088L42.4688 10.4L42.5488 31H38.6288V1.2H38.8288L60.0288 23L59.9488 2.08H63.8288ZM89.2244 2.08V5.8H81.4644V31H77.5844V5.8H70.0244V2.08H89.2244ZM108.32 23.4H97.2L94.12 31H90.28L102.92 0.879999H103.16L115.8 31H111.32L108.32 23.4ZM107 20.04L102.88 9.48L98.6 20.04H107ZM132.063 16.56C132.063 13.92 132.73 11.4667 134.063 9.2C135.396 6.93333 137.183 5.13333 139.423 3.8C141.69 2.44 144.156 1.76 146.823 1.76C149.463 1.76 151.916 2.44 154.183 3.8C156.45 5.13333 158.25 6.93333 159.583 9.2C160.943 11.4667 161.623 13.92 161.623 16.56C161.623 19.2267 160.956 21.6933 159.623 23.96C158.29 26.2267 156.476 28.0267 154.183 29.36C151.916 30.6667 149.463 31.32 146.823 31.32C144.156 31.32 141.69 30.6667 139.423 29.36C137.156 28.0533 135.356 26.28 134.023 24.04C132.716 21.7733 132.063 19.28 132.063 16.56ZM136.063 16.6C136.063 18.5733 136.543 20.4 137.503 22.08C138.463 23.76 139.77 25.0933 141.423 26.08C143.103 27.0667 144.93 27.56 146.903 27.56C148.876 27.56 150.676 27.08 152.303 26.12C153.956 25.1333 155.25 23.8 156.183 22.12C157.143 20.4133 157.623 18.56 157.623 16.56C157.623 14.56 157.143 12.7067 156.183 11C155.223 9.29333 153.916 7.94667 152.263 6.96C150.61 5.97333 148.796 5.48 146.823 5.48C144.85 5.48 143.036 5.98667 141.383 7C139.73 7.98667 138.423 9.33333 137.463 11.04C136.53 12.7467 136.063 14.6 136.063 16.6ZM10.92 42.08C14.0667 42.08 16.52 42.8667 18.28 44.44C20.0667 46.0133 20.96 48.2133 20.96 51.04C20.96 52.6667 20.6267 54.1867 19.96 55.6C19.32 57.0133 18.2667 58.16 16.8 59.04C15.36 59.92 13.5333 60.36 11.32 60.36H7.04V71H3.16V42.08H10.92ZM11.32 56.6C12.7067 56.6 13.8267 56.3067 14.68 55.72C15.56 55.1333 16.1867 54.4267 16.56 53.6C16.9333 52.7467 17.12 51.92 17.12 51.12C17.12 49.7333 16.6667 48.5067 15.76 47.44C14.8533 46.3467 13.44 45.8 11.52 45.8H7.04V56.6H11.32ZM42.8691 71L36.0691 60.32C35.8557 60.3467 35.5357 60.36 35.1091 60.36H30.8291V71H26.9491V42.08H34.6691C36.6424 42.08 38.4024 42.4267 39.9491 43.12C41.4957 43.8133 42.7091 44.84 43.5891 46.2C44.4691 47.5333 44.9091 49.1467 44.9091 51.04C44.9091 52.8267 44.5091 54.4667 43.7091 55.96C42.9357 57.4533 41.7357 58.5867 40.1091 59.36L47.3891 71H42.8691ZM35.0291 56.6C37.1091 56.6 38.6024 56.0533 39.5091 54.96C40.4424 53.8667 40.9091 52.6133 40.9091 51.2C40.9091 50.3467 40.7091 49.5067 40.3091 48.68C39.9357 47.8533 39.3224 47.1733 38.4691 46.64C37.6424 46.08 36.5891 45.8 35.3091 45.8H30.8291V56.6H35.0291ZM68.5153 63.4H57.3953L54.3153 71H50.4753L63.1153 40.88H63.3553L75.9953 71H71.5153L68.5153 63.4ZM67.1953 60.04L63.0753 49.48L58.7953 60.04H67.1953ZM103.562 67.24V71H79.2822L86.0822 60.88C91.5222 52.72 94.9089 47.6933 96.2422 45.8H84.2022C83.3489 45.8 82.5889 45.5867 81.9222 45.16C81.2555 44.7067 80.9222 44.1067 80.9222 43.36V40.64H84.5222V41.16C84.5222 41.5867 84.6022 41.8533 84.7622 41.96C84.9222 42.04 85.2689 42.08 85.8022 42.08H103.122L85.9622 67.24H103.562ZM128.718 42.08V45.8H113.798V54.6H127.118V58.32H113.798V67.24H129.278V71H109.918V42.08H128.718ZM151.971 71L145.171 60.32C144.957 60.3467 144.637 60.36 144.211 60.36H139.931V71H136.051V42.08H143.771C145.744 42.08 147.504 42.4267 149.051 43.12C150.597 43.8133 151.811 44.84 152.691 46.2C153.571 47.5333 154.011 49.1467 154.011 51.04C154.011 52.8267 153.611 54.4667 152.811 55.96C152.037 57.4533 150.837 58.5867 149.211 59.36L156.491 71H151.971ZM144.131 56.6C146.211 56.6 147.704 56.0533 148.611 54.96C149.544 53.8667 150.011 52.6133 150.011 51.2C150.011 50.3467 149.811 49.5067 149.411 48.68C149.037 47.8533 148.424 47.1733 147.571 46.64C146.744 46.08 145.691 45.8 144.411 45.8H139.931V56.6H144.131ZM3.16 82.08H11.08C14.68 82.08 17.6533 82.8 20 84.24C22.3733 85.6533 24.0933 87.4933 25.16 89.76C26.2533 92 26.8 94.3733 26.8 96.88C26.8 99.68 26.1467 102.16 24.84 104.32C23.5333 106.453 21.7867 108.107 19.6 109.28C17.4133 110.427 15.04 111 12.48 111H3.16V82.08ZM11.72 107.24C13.8533 107.24 15.76 106.827 17.44 106C19.12 105.147 20.4267 103.92 21.36 102.32C22.32 100.72 22.8 98.8133 22.8 96.6C22.8 94.3333 22.3067 92.3867 21.32 90.76C20.3333 89.1333 19.0133 87.9067 17.36 87.08C15.7333 86.2267 13.9733 85.8 12.08 85.8H7.04V107.24H11.72ZM31.5163 96.56C31.5163 93.92 32.1829 91.4667 33.5163 89.2C34.8496 86.9333 36.6363 85.1333 38.8763 83.8C41.1429 82.44 43.6096 81.76 46.2763 81.76C48.9163 81.76 51.3696 82.44 53.6363 83.8C55.9029 85.1333 57.7029 86.9333 59.0363 89.2C60.3963 91.4667 61.0763 93.92 61.0763 96.56C61.0763 99.2267 60.4096 101.693 59.0763 103.96C57.7429 106.227 55.9296 108.027 53.6363 109.36C51.3696 110.667 48.9163 111.32 46.2763 111.32C43.6096 111.32 41.1429 110.667 38.8763 109.36C36.6096 108.053 34.8096 106.28 33.4763 104.04C32.1696 101.773 31.5163 99.28 31.5163 96.56ZM35.5163 96.6C35.5163 98.5733 35.9963 100.4 36.9563 102.08C37.9163 103.76 39.2229 105.093 40.8763 106.08C42.5563 107.067 44.3829 107.56 46.3563 107.56C48.3296 107.56 50.1296 107.08 51.7562 106.12C53.4096 105.133 54.7029 103.8 55.6363 102.12C56.5963 100.413 57.0763 98.56 57.0763 96.56C57.0763 94.56 56.5963 92.7067 55.6363 91C54.6763 89.2933 53.3696 87.9467 51.7163 86.96C50.0629 85.9733 48.2496 85.48 46.2763 85.48C44.3029 85.48 42.4896 85.9867 40.8363 87C39.1829 87.9867 37.8763 89.3333 36.9163 91.04C35.9829 92.7467 35.5163 94.6 35.5163 96.6ZM18.32 143.4H7.2L4.12 151H0.28L12.92 120.88H13.16L25.8 151H21.32L18.32 143.4ZM17 140.04L12.88 129.48L8.6 140.04H17ZM47.1269 151L40.3269 140.32C40.1135 140.347 39.7935 140.36 39.3669 140.36H35.0869V151H31.2069V122.08H38.9269C40.9002 122.08 42.6602 122.427 44.2069 123.12C45.7535 123.813 46.9669 124.84 47.8469 126.2C48.7269 127.533 49.1669 129.147 49.1669 131.04C49.1669 132.827 48.7669 134.467 47.9669 135.96C47.1935 137.453 45.9935 138.587 44.3669 139.36L51.6469 151H47.1269ZM39.2869 136.6C41.3669 136.6 42.8602 136.053 43.7669 134.96C44.7002 133.867 45.1669 132.613 45.1669 131.2C45.1669 130.347 44.9669 129.507 44.5669 128.68C44.1935 127.853 43.5802 127.173 42.7269 126.64C41.9002 126.08 40.8469 125.8 39.5669 125.8H35.0869V136.6H39.2869ZM55.1881 136.56C55.1881 133.92 55.8548 131.467 57.1881 129.2C58.5215 126.933 60.3081 125.133 62.5481 123.8C64.8148 122.44 67.2815 121.76 69.9481 121.76C72.5881 121.76 75.0415 122.44 77.3081 123.8C79.5748 125.133 81.3748 126.933 82.7081 129.2C84.0681 131.467 84.7481 133.92 84.7481 136.56C84.7481 139.227 84.0815 141.693 82.7481 143.96C81.4148 146.227 79.6015 148.027 77.3081 149.36C75.0415 150.667 72.5881 151.32 69.9481 151.32C67.2815 151.32 64.8148 150.667 62.5481 149.36C60.2815 148.053 58.4815 146.28 57.1481 144.04C55.8415 141.773 55.1881 139.28 55.1881 136.56ZM59.1881 136.6C59.1881 138.573 59.6681 140.4 60.6281 142.08C61.5881 143.76 62.8948 145.093 64.5481 146.08C66.2281 147.067 68.0548 147.56 70.0281 147.56C72.0015 147.56 73.8015 147.08 75.4281 146.12C77.0815 145.133 78.3748 143.8 79.3081 142.12C80.2681 140.413 80.7481 138.56 80.7481 136.56C80.7481 134.56 80.2681 132.707 79.3081 131C78.3481 129.293 77.0415 127.947 75.3881 126.96C73.7348 125.973 71.9215 125.48 69.9481 125.48C67.9748 125.48 66.1615 125.987 64.5081 127C62.8548 127.987 61.5481 129.333 60.5881 131.04C59.6548 132.747 59.1881 134.6 59.1881 136.6ZM120.045 121.16V151H116.205V132.28L105.565 147.36H105.485L95.045 132.8V151H91.285V121.16H91.325L105.565 141.32L120.005 121.16H120.045ZM143.515 143.4H132.395L129.315 151H125.475L138.115 120.88H138.355L150.995 151H146.515L143.515 143.4ZM142.195 140.04L138.075 129.48L133.795 140.04H142.195Z" fill="#F0F0F0"/>
</svg>
