<svg width="58" height="45" viewBox="0 0 58 45" fill="none" xmlns="http://www.w3.org/2000/svg">
<path d="M28.6133 11.219C30.6756 4.60687 36.3467 0.283569 42.7911 0.283569C51.04 0.283569 58 7.65861 58 17.3225V43.5166V44.5338H56.1956V43.5166V17.3225C56.1956 8.93017 50.2667 2.31806 43.0489 2.31806C35.5733 2.31806 29.9022 8.93017 29.9022 17.3225V18.3397V43.5166V44.5338H28.0978V43.5166V18.3397V17.3225C28.0978 8.93017 22.1689 2.31806 14.9511 2.31806C7.47555 2.31806 1.80445 8.93017 1.80445 17.3225V18.3397V43.5166V44.5338H0V43.5166V18.3397V17.3225V1.04651V0.283569H1.28889V1.30082V9.18448C3.86667 3.84394 8.76444 0.537882 14.4356 0.537882C21.1378 0.28357 26.5511 4.60687 28.6133 11.219Z" fill="black"/>
</svg>
