<svg width="254" height="70" viewBox="0 0 254 70" fill="none" xmlns="http://www.w3.org/2000/svg">
<g filter="url(#filter0_d_356_2)">
<path d="M6.26027 60.7881L6.00913 61.2852H4L4.50228 60.0423L30.8721 1.12613C31.1233 0.380359 32.1279 0.380359 32.379 1.12613L58.4977 60.2909L59 61.5338H56.9909L56.7397 61.0366L31.6256 3.61205L6.26027 60.7881Z" fill="black"/>
<path d="M31.3285 1.3304L31.3383 1.30847L31.346 1.28571C31.3997 1.12636 31.5154 1.0668 31.6256 1.0668C31.7357 1.0668 31.8515 1.12636 31.9051 1.28571L31.9124 1.30726L31.9216 1.32806L58.0371 60.4856L58.2587 61.0338H57.2985L57.1923 60.8236L32.0837 3.4117L31.6288 2.3717L31.1685 3.40929L5.80833 60.5738L5.70153 60.7852H4.74133L4.9624 60.2382L31.3285 1.3304Z" stroke="black"/>
<path d="M31.3285 1.3304L31.3383 1.30847L31.346 1.28571C31.3997 1.12636 31.5154 1.0668 31.6256 1.0668C31.7357 1.0668 31.8515 1.12636 31.9051 1.28571L31.9124 1.30726L31.9216 1.32806L58.0371 60.4856L58.2587 61.0338H57.2985L57.1923 60.8236L32.0837 3.4117L31.6288 2.3717L31.1685 3.40929L5.80833 60.5738L5.70153 60.7852H4.74133L4.9624 60.2382L31.3285 1.3304Z" stroke="black" stroke-opacity="0.2"/>
</g>
<path d="M69.7303 29.2362C72.9438 21.6069 80.1124 17.2836 89.0112 17.2836H90V19.0638H89.0112C77.8876 19.0638 69.7303 25.9302 69.7303 38.9001V39.4087V40.4259V60.5166V61.5338H68V60.5166V40.4259V39.4087C68 39.1544 68 39.1544 68 38.9001V18.0465V17.2836H69.7303V18.3008V29.2362Z" fill="black"/>
<path d="M94 39.4087C94 27.0598 103.342 17.2836 114.5 17.2836C125.918 17.2836 135 27.0598 135 39.4087C135 51.7576 125.658 61.5338 114.5 61.5338C103.342 61.5338 94 51.7576 94 39.4087ZM95.8165 39.4087C95.8165 50.7285 104.12 59.7329 114.5 59.7329C124.88 59.7329 133.184 50.7285 133.184 39.4087C133.184 28.0889 124.88 19.0845 114.5 19.0845C104.38 19.0845 95.8165 28.0889 95.8165 39.4087Z" fill="black"/>
<path d="M173.613 28.219C175.676 21.6069 181.347 17.2836 187.791 17.2836C196.04 17.2836 203 24.6586 203 34.3225V60.5166V61.5338H201.196V60.5166V34.3225C201.196 25.9302 195.267 19.3181 188.049 19.3181C180.573 19.3181 174.902 25.9302 174.902 34.3225V35.3397V60.5166V61.5338H173.098V60.5166V35.3397V34.3225C173.098 25.9302 167.169 19.3181 159.951 19.3181C152.476 19.3181 146.804 25.9302 146.804 34.3225V35.3397V60.5166V61.5338H145V60.5166V35.3397V34.3225V18.0465V17.2836H146.289V18.3008V26.1845C148.867 20.8439 153.764 17.5379 159.436 17.5379C166.138 17.2836 171.551 21.6069 173.613 28.219Z" fill="black"/>
<path d="M249.949 51.5003L251.468 52.5294C248.684 56.3884 243.367 61.5338 234 61.5338C222.861 61.5338 214 51.7576 214 39.4087C214 27.0598 222.861 17.2836 234 17.2836C245.139 17.2836 254 27.0598 254 39.4087V40.4378H252.987H215.772C216.278 51.2431 224.127 59.9902 234 59.9902C242.608 59.9902 247.165 55.1021 249.949 51.5003ZM215.772 38.6369H252.228C252.228 28.3461 244.127 19.0845 234 19.0845C223.873 19.0845 216.025 27.5743 215.772 38.6369Z" fill="black"/>
<path d="M232.5 13.3502C236.09 13.3502 239 10.4885 239 6.95851C239 3.42847 236.09 0.566803 232.5 0.566803C228.91 0.566803 226 3.42847 226 6.95851C226 10.4885 228.91 13.3502 232.5 13.3502Z" fill="black"/>
<defs>
<filter id="filter0_d_356_2" x="0" y="0.566803" width="63" height="68.967" filterUnits="userSpaceOnUse" color-interpolation-filters="sRGB">
<feFlood flood-opacity="0" result="BackgroundImageFix"/>
<feColorMatrix in="SourceAlpha" type="matrix" values="0 0 0 0 0 0 0 0 0 0 0 0 0 0 0 0 0 0 127 0" result="hardAlpha"/>
<feOffset dy="4"/>
<feGaussianBlur stdDeviation="2"/>
<feComposite in2="hardAlpha" operator="out"/>
<feColorMatrix type="matrix" values="0 0 0 0 0 0 0 0 0 0 0 0 0 0 0 0 0 0 0.25 0"/>
<feBlend mode="normal" in2="BackgroundImageFix" result="effect1_dropShadow_356_2"/>
<feBlend mode="normal" in="SourceGraphic" in2="effect1_dropShadow_356_2" result="shape"/>
</filter>
</defs>
</svg>
