<svg width="40" height="45" viewBox="0 0 40 45" fill="none" xmlns="http://www.w3.org/2000/svg">
<path d="M35.9494 34.5003L37.4684 35.5294C34.6835 39.3884 29.3671 44.5338 20 44.5338C8.86077 44.5338 0 34.7576 0 22.4087C0 10.0598 8.86077 0.283569 20 0.283569C31.1393 0.283569 40 10.0598 40 22.4087V23.4378H38.9874H1.77214C2.27847 34.2431 10.1266 42.9902 20 42.9902C28.6076 42.9902 33.1646 38.1021 35.9494 34.5003ZM1.77214 21.6369H38.2279C38.2279 11.3461 30.1266 2.08445 20 2.08445C9.87342 2.08445 2.02531 10.5743 1.77214 21.6369Z" fill="black"/>
</svg>
